<svg xmlns="http://www.w3.org/2000/svg" width="240" height="240" fill="none"><g clip-path="url(#a)"><path fill="#F8A079" d="M116.051 177.975a62.024 62.024 0 1 1 62 62.025 61.997 61.997 0 0 1-62-62.025Z"/><path fill="#38384B" d="M76.05 216.275a61.498 61.498 0 0 1-56.818-37.965 61.5 61.5 0 1 1 118.319-23.535 61.575 61.575 0 0 1-61.5 61.5Zm0-118a56.503 56.503 0 0 0-55.413 67.522 56.497 56.497 0 0 0 44.391 44.392 56.503 56.503 0 0 0 58.001-24.024 56.504 56.504 0 0 0 9.522-31.39 56.575 56.575 0 0 0-56.5-56.5Z"/><path fill="#38384B" d="M76.676 96.4a3.16 3.16 0 0 1-.675 0 2.501 2.501 0 0 1-1.725-3.1L77.9 80.8a74.1 74.1 0 0 1 91.375-50.7 74.203 74.203 0 0 1 45.225 37.2 2.513 2.513 0 0 1 .28 1.977 2.509 2.509 0 0 1-1.257 1.55 2.5 2.5 0 0 1-3.448-1.227 69.282 69.282 0 0 0-42.175-34.7 69.126 69.126 0 0 0-85.2 47.275l-3.625 12.5a2.5 2.5 0 0 1-2.4 1.725Z"/><path fill="#38384B" d="M213.326 73.6h-.525a2.498 2.498 0 0 1-1.925-2.95l9.65-45a2.5 2.5 0 1 1 4.875 1.05l-9.65 45a2.503 2.503 0 0 1-2.425 1.9Z"/><path fill="#38384B" d="M212.475 73.775a1.822 1.822 0 0 1-.625 0l-44.5-11.6a2.51 2.51 0 0 1-1.787-3.062 2.508 2.508 0 0 1 3.062-1.788l44.5 11.625a2.522 2.522 0 1 1-.65 5v-.175Z"/></g><defs><clipPath id="a"><path fill="#fff" d="M0 0h240v240H0z"/></clipPath></defs></svg>